<?xml version="1.0" standalone="no"?>
<!DOCTYPE svg PUBLIC "-//W3C//DTD SVG 20010904//EN"
 "http://www.w3.org/TR/2001/REC-SVG-20010904/DTD/svg10.dtd">
<svg version="1.0" xmlns="http://www.w3.org/2000/svg"
 width="950.000000pt" height="950.000000pt" viewBox="0 0 950.000000 950.000000"
 preserveAspectRatio="xMidYMid meet">
<metadata>
Created by potrace 1.14, written by Peter Selinger 2001-2017
</metadata>
<g transform="translate(0.000000,950.000000) scale(0.100000,-0.100000)"
fill="#000000" stroke="none">
<path d="M4435 9239 c-111 -9 -215 -19 -245 -24 -14 -2 -47 -7 -75 -10 -27 -3
-57 -8 -65 -10 -8 -2 -37 -6 -65 -10 -82 -10 -321 -63 -459 -101 -626 -173
-1197 -475 -1711 -905 -116 -98 -374 -351 -466 -459 -35 -41 -72 -83 -83 -95
-42 -46 -248 -327 -309 -421 -323 -499 -544 -1050 -651 -1624 -14 -74 -27
-153 -30 -175 -3 -22 -8 -62 -12 -90 -3 -27 -8 -59 -10 -69 -25 -135 -25 -823
0 -986 2 -14 7 -50 11 -80 53 -453 223 -1017 432 -1435 146 -291 403 -680 600
-906 735 -846 1676 -1370 2753 -1534 25 -4 52 -9 60 -10 8 -1 40 -6 70 -10 30
-3 66 -8 80 -10 107 -16 627 -22 810 -10 213 14 586 78 820 141 464 124 969
355 1360 623 542 370 1001 857 1335 1416 346 578 565 1255 622 1925 10 119 11
614 1 735 -16 188 -27 272 -64 475 -137 741 -471 1454 -957 2040 -164 196
-437 468 -622 617 -321 258 -689 483 -1035 633 -119 51 -132 57 -180 75 -340
131 -723 224 -1153 280 -100 13 -647 23 -762 14z"/>
</g>
</svg>
